<svg width="180" height="463" viewBox="0 0 180 463" fill="none" xmlns="http://www.w3.org/2000/svg">
<path d="M72.8231 170.284L81.4933 184.939L98.5199 185.12L106.911 170.587L98.2751 155.872L81.214 155.751L72.8231 170.284Z" fill="url(#paint0_linear_203_265)"/>
<path d="M72.2709 291.442L80.9412 306.097L97.9677 306.278L106.359 291.744L97.7229 277.03L80.6618 276.908L72.2709 291.442Z" fill="url(#paint1_linear_203_265)"/>
<path d="M18.582 200.689L26.9811 215.327L43.8576 215.282L52.37 200.537L44.006 185.839L27.0945 185.945L18.582 200.689Z" fill="url(#paint2_linear_203_265)"/>
<path d="M36.7419 170.422L45.141 185.06L62.0174 185.015L70.5299 170.271L62.1659 155.572L45.2544 155.678L36.7419 170.422Z" fill="url(#paint3_linear_203_265)"/>
<path d="M36.1895 291.58L44.5886 306.218L61.465 306.173L69.9775 291.429L61.6135 276.73L44.702 276.836L36.1895 291.58Z" fill="url(#paint4_linear_203_265)"/>
<path d="M18.4929 261.31L27.1026 276.07L44.1897 276.146L52.7022 261.402L44.1275 246.582L27.0054 246.566L18.4929 261.31Z" fill="url(#paint5_linear_203_265)"/>
<path d="M109.292 170.511L117.901 185.271L134.988 185.347L143.501 170.603L134.926 155.783L117.804 155.767L109.292 170.511Z" fill="url(#paint6_linear_203_265)"/>
<path d="M108.739 291.669L117.349 306.429L134.436 306.505L142.949 291.761L134.374 276.94L117.252 276.925L108.739 291.669Z" fill="url(#paint7_linear_203_265)"/>
<path d="M56.0197 261.523L63.6711 274.456L78.6968 274.615L86.1017 261.79L78.4808 248.804L63.4245 248.697L56.0197 261.523Z" fill="url(#paint8_linear_203_265)"/>
<path d="M38.955 231.362L46.6064 244.295L61.6322 244.455L69.037 231.629L61.4161 218.644L46.3599 218.536L38.955 231.362Z" fill="url(#paint9_linear_203_265)"/>
<path d="M56.7375 201.096L64.3888 214.028L79.4146 214.188L86.8195 201.363L79.1986 188.377L64.1423 188.27L56.7375 201.096Z" fill="url(#paint10_linear_203_265)"/>
<path d="M93.0573 201.096L100.709 214.028L115.734 214.188L123.139 201.363L115.518 188.377L100.462 188.27L93.0573 201.096Z" fill="url(#paint11_linear_203_265)"/>
<path d="M127.529 200.617L136.138 215.376L153.225 215.452L161.737 200.708L153.163 185.889L136.041 185.873L127.529 200.617Z" fill="url(#paint12_linear_203_265)"/>
<path d="M127.529 261.384L136.138 276.143L153.225 276.219L161.737 261.476L153.163 246.656L136.042 246.641L127.529 261.384Z" fill="url(#paint13_linear_203_265)"/>
<path d="M145.269 230.812L153.878 245.571L170.964 245.647L179.476 230.903L170.902 216.084L153.781 216.068L145.269 230.812Z" fill="url(#paint14_linear_203_265)"/>
<path d="M0.333008 231.044L8.94267 245.804L26.0298 245.88L34.5423 231.136L25.9676 216.316L8.84549 216.3L0.333008 231.044Z" fill="url(#paint15_linear_203_265)"/>
<path d="M110.748 230.197L118.4 243.13L133.427 243.29L140.832 230.464L133.211 217.477L118.154 217.37L110.748 230.197Z" fill="url(#paint16_linear_203_265)"/>
<path d="M92.254 261.524L99.9057 274.457L114.932 274.617L122.338 261.791L114.716 248.805L99.6593 248.697L92.254 261.524Z" fill="url(#paint17_linear_203_265)"/>
<path d="M78.0038 231.277L83.7429 241.279L95.2746 241.248L101.091 231.173L95.3761 221.13L83.8204 221.202L78.0038 231.277Z" fill="url(#paint18_linear_203_265)"/>
<path d="M72.7289 15.0083L81.3991 29.6632L98.4257 29.8444L106.817 15.311L98.1808 0.596317L81.1197 0.474913L72.7289 15.0083Z" fill="url(#paint19_linear_203_265)"/>
<path d="M72.1767 136.166L80.8469 150.821L97.8735 151.002L106.264 136.468L97.6287 121.754L80.5676 121.632L72.1767 136.166Z" fill="url(#paint20_linear_203_265)"/>
<path d="M18.4878 45.4128L26.8868 60.0509L43.7633 60.0056L52.2758 45.2616L43.9118 30.5628L27.0003 30.6688L18.4878 45.4128Z" fill="url(#paint21_linear_203_265)"/>
<path d="M36.6477 15.1464L45.0467 29.7845L61.9232 29.7393L70.4357 14.9952L62.0717 0.296432L45.1602 0.402383L36.6477 15.1464Z" fill="url(#paint22_linear_203_265)"/>
<path d="M36.0953 136.304L44.4943 150.942L61.3708 150.897L69.8833 136.153L61.5193 121.454L44.6078 121.56L36.0953 136.304Z" fill="url(#paint23_linear_203_265)"/>
<path d="M18.3987 106.035L27.0083 120.794L44.0954 120.871L52.6079 106.127L44.0333 91.3061L26.9111 91.2905L18.3987 106.035Z" fill="url(#paint24_linear_203_265)"/>
<path d="M109.197 15.2355L117.807 29.9952L134.894 30.0716L143.407 15.3275L134.832 0.507114L117.71 0.491458L109.197 15.2355Z" fill="url(#paint25_linear_203_265)"/>
<path d="M108.645 136.393L117.255 151.153L134.342 151.229L142.854 136.485L134.28 121.665L117.158 121.649L108.645 136.393Z" fill="url(#paint26_linear_203_265)"/>
<path d="M55.9254 106.247L63.5768 119.18L78.6026 119.34L86.0075 106.514L78.3866 93.5284L63.3303 93.4212L55.9254 106.247Z" fill="url(#paint27_linear_203_265)"/>
<path d="M38.8608 76.0862L46.5121 89.0189L61.5379 89.1788L68.9428 76.3532L61.3219 63.3677L46.2656 63.2606L38.8608 76.0862Z" fill="url(#paint28_linear_203_265)"/>
<path d="M56.6432 45.8196L64.2946 58.7524L79.3204 58.9123L86.7253 46.0867L79.1043 33.1011L64.0481 32.994L56.6432 45.8196Z" fill="url(#paint29_linear_203_265)"/>
<path d="M92.963 45.8196L100.614 58.7524L115.64 58.9123L123.045 46.0867L115.424 33.1012L100.368 32.994L92.963 45.8196Z" fill="url(#paint30_linear_203_265)"/>
<path d="M127.435 45.3408L136.044 60.0998L153.13 60.176L161.643 45.4325L153.068 30.6128L135.947 30.5973L127.435 45.3408Z" fill="url(#paint31_linear_203_265)"/>
<path d="M127.435 106.108L136.044 120.867L153.13 120.943L161.643 106.2L153.069 91.3801L135.947 91.3646L127.435 106.108Z" fill="url(#paint32_linear_203_265)"/>
<path d="M145.175 75.5358L153.784 90.2948L170.87 90.371L179.382 75.6275L170.808 60.8078L153.687 60.7923L145.175 75.5358Z" fill="url(#paint33_linear_203_265)"/>
<path d="M0.23877 75.7682L8.84843 90.5279L25.9355 90.6042L34.448 75.8602L25.8734 61.0398L8.75125 61.0242L0.23877 75.7682Z" fill="url(#paint34_linear_203_265)"/>
<path d="M110.654 74.9208L118.306 87.8542L133.332 88.0141L140.738 75.1877L133.116 62.2014L118.059 62.0943L110.654 74.9208Z" fill="url(#paint35_linear_203_265)"/>
<path d="M92.1598 106.248L99.8115 119.181L114.838 119.341L122.243 106.515L114.622 93.5286L99.5651 93.4216L92.1598 106.248Z" fill="url(#paint36_linear_203_265)"/>
<path d="M77.9096 76.0007L83.6487 86.003L95.1804 85.972L100.997 75.8974L95.2818 65.8537L83.7262 65.9261L77.9096 76.0007Z" fill="url(#paint37_linear_203_265)"/>
<path d="M72.7289 326.008L81.3991 340.663L98.4257 340.844L106.817 326.311L98.1808 311.596L81.1197 311.475L72.7289 326.008Z" fill="url(#paint38_linear_203_265)"/>
<path d="M72.1767 447.166L80.8469 461.821L97.8735 462.002L106.264 447.468L97.6287 432.754L80.5676 432.632L72.1767 447.166Z" fill="url(#paint39_linear_203_265)"/>
<path d="M18.4878 356.413L26.8868 371.051L43.7633 371.006L52.2758 356.262L43.9118 341.563L27.0003 341.669L18.4878 356.413Z" fill="url(#paint40_linear_203_265)"/>
<path d="M36.6477 326.146L45.0467 340.785L61.9232 340.739L70.4357 325.995L62.0717 311.296L45.1602 311.402L36.6477 326.146Z" fill="url(#paint41_linear_203_265)"/>
<path d="M36.0953 447.304L44.4943 461.942L61.3708 461.897L69.8833 447.153L61.5193 432.454L44.6078 432.56L36.0953 447.304Z" fill="url(#paint42_linear_203_265)"/>
<path d="M18.3987 417.035L27.0083 431.794L44.0954 431.871L52.6079 417.127L44.0333 402.306L26.9111 402.29L18.3987 417.035Z" fill="url(#paint43_linear_203_265)"/>
<path d="M109.197 326.236L117.807 340.995L134.894 341.072L143.407 326.327L134.832 311.507L117.71 311.491L109.197 326.236Z" fill="url(#paint44_linear_203_265)"/>
<path d="M108.645 447.393L117.255 462.153L134.342 462.229L142.854 447.485L134.28 432.665L117.158 432.649L108.645 447.393Z" fill="url(#paint45_linear_203_265)"/>
<path d="M55.9254 417.247L63.5768 430.18L78.6026 430.34L86.0075 417.514L78.3866 404.528L63.3303 404.421L55.9254 417.247Z" fill="url(#paint46_linear_203_265)"/>
<path d="M38.8608 387.086L46.5121 400.019L61.5379 400.179L68.9428 387.353L61.3219 374.368L46.2656 374.261L38.8608 387.086Z" fill="url(#paint47_linear_203_265)"/>
<path d="M56.6432 356.82L64.2946 369.752L79.3204 369.912L86.7253 357.087L79.1043 344.101L64.0481 343.994L56.6432 356.82Z" fill="url(#paint48_linear_203_265)"/>
<path d="M92.963 356.82L100.614 369.752L115.64 369.912L123.045 357.087L115.424 344.101L100.368 343.994L92.963 356.82Z" fill="url(#paint49_linear_203_265)"/>
<path d="M127.435 356.341L136.044 371.1L153.13 371.176L161.643 356.433L153.068 341.613L135.947 341.597L127.435 356.341Z" fill="url(#paint50_linear_203_265)"/>
<path d="M127.435 417.108L136.044 431.867L153.13 431.943L161.643 417.2L153.069 402.38L135.947 402.365L127.435 417.108Z" fill="url(#paint51_linear_203_265)"/>
<path d="M145.175 386.536L153.784 401.295L170.87 401.371L179.382 386.627L170.808 371.808L153.687 371.792L145.175 386.536Z" fill="url(#paint52_linear_203_265)"/>
<path d="M0.23877 386.768L8.84843 401.528L25.9355 401.604L34.448 386.86L25.8734 372.04L8.75125 372.024L0.23877 386.768Z" fill="url(#paint53_linear_203_265)"/>
<path d="M110.654 385.921L118.306 398.854L133.332 399.014L140.738 386.188L133.116 373.201L118.059 373.094L110.654 385.921Z" fill="url(#paint54_linear_203_265)"/>
<path d="M92.1598 417.248L99.8115 430.181L114.838 430.341L122.243 417.515L114.622 404.529L99.5651 404.422L92.1598 417.248Z" fill="url(#paint55_linear_203_265)"/>
<path d="M77.9096 387.001L83.6487 397.003L95.1804 396.972L100.997 386.897L95.2818 376.854L83.7262 376.926L77.9096 387.001Z" fill="url(#paint56_linear_203_265)"/>
<defs>
<linearGradient id="paint0_linear_203_265" x1="90" y1="602.5" x2="90" y2="-1.75859e-05" gradientUnits="userSpaceOnUse">
<stop stop-color="#83B0BE"/>
<stop offset="1" stop-color="#65C9A5"/>
</linearGradient>
<linearGradient id="paint1_linear_203_265" x1="90" y1="602.5" x2="90" y2="-1.75859e-05" gradientUnits="userSpaceOnUse">
<stop stop-color="#83B0BE"/>
<stop offset="1" stop-color="#65C9A5"/>
</linearGradient>
<linearGradient id="paint2_linear_203_265" x1="90" y1="602.5" x2="90" y2="-1.75859e-05" gradientUnits="userSpaceOnUse">
<stop stop-color="#83B0BE"/>
<stop offset="1" stop-color="#65C9A5"/>
</linearGradient>
<linearGradient id="paint3_linear_203_265" x1="90" y1="602.5" x2="90" y2="-1.75859e-05" gradientUnits="userSpaceOnUse">
<stop stop-color="#83B0BE"/>
<stop offset="1" stop-color="#65C9A5"/>
</linearGradient>
<linearGradient id="paint4_linear_203_265" x1="90" y1="602.5" x2="90" y2="-1.75859e-05" gradientUnits="userSpaceOnUse">
<stop stop-color="#83B0BE"/>
<stop offset="1" stop-color="#65C9A5"/>
</linearGradient>
<linearGradient id="paint5_linear_203_265" x1="90" y1="602.5" x2="90" y2="-1.75859e-05" gradientUnits="userSpaceOnUse">
<stop stop-color="#83B0BE"/>
<stop offset="1" stop-color="#65C9A5"/>
</linearGradient>
<linearGradient id="paint6_linear_203_265" x1="90" y1="602.5" x2="90" y2="-1.75859e-05" gradientUnits="userSpaceOnUse">
<stop stop-color="#83B0BE"/>
<stop offset="1" stop-color="#65C9A5"/>
</linearGradient>
<linearGradient id="paint7_linear_203_265" x1="90" y1="602.5" x2="90" y2="-1.75859e-05" gradientUnits="userSpaceOnUse">
<stop stop-color="#83B0BE"/>
<stop offset="1" stop-color="#65C9A5"/>
</linearGradient>
<linearGradient id="paint8_linear_203_265" x1="90" y1="602.5" x2="90" y2="-1.75859e-05" gradientUnits="userSpaceOnUse">
<stop stop-color="#83B0BE"/>
<stop offset="1" stop-color="#65C9A5"/>
</linearGradient>
<linearGradient id="paint9_linear_203_265" x1="90" y1="602.5" x2="90" y2="-1.75859e-05" gradientUnits="userSpaceOnUse">
<stop stop-color="#83B0BE"/>
<stop offset="1" stop-color="#65C9A5"/>
</linearGradient>
<linearGradient id="paint10_linear_203_265" x1="90" y1="602.5" x2="90" y2="-1.75859e-05" gradientUnits="userSpaceOnUse">
<stop stop-color="#83B0BE"/>
<stop offset="1" stop-color="#65C9A5"/>
</linearGradient>
<linearGradient id="paint11_linear_203_265" x1="90" y1="602.5" x2="90" y2="-1.75859e-05" gradientUnits="userSpaceOnUse">
<stop stop-color="#83B0BE"/>
<stop offset="1" stop-color="#65C9A5"/>
</linearGradient>
<linearGradient id="paint12_linear_203_265" x1="90" y1="602.5" x2="90" y2="-1.75859e-05" gradientUnits="userSpaceOnUse">
<stop stop-color="#83B0BE"/>
<stop offset="1" stop-color="#65C9A5"/>
</linearGradient>
<linearGradient id="paint13_linear_203_265" x1="90" y1="602.5" x2="90" y2="-1.75859e-05" gradientUnits="userSpaceOnUse">
<stop stop-color="#83B0BE"/>
<stop offset="1" stop-color="#65C9A5"/>
</linearGradient>
<linearGradient id="paint14_linear_203_265" x1="90" y1="602.5" x2="90" y2="-1.75859e-05" gradientUnits="userSpaceOnUse">
<stop stop-color="#83B0BE"/>
<stop offset="1" stop-color="#65C9A5"/>
</linearGradient>
<linearGradient id="paint15_linear_203_265" x1="90" y1="602.5" x2="90" y2="-1.75859e-05" gradientUnits="userSpaceOnUse">
<stop stop-color="#83B0BE"/>
<stop offset="1" stop-color="#65C9A5"/>
</linearGradient>
<linearGradient id="paint16_linear_203_265" x1="90" y1="602.5" x2="90" y2="-1.75859e-05" gradientUnits="userSpaceOnUse">
<stop stop-color="#83B0BE"/>
<stop offset="1" stop-color="#65C9A5"/>
</linearGradient>
<linearGradient id="paint17_linear_203_265" x1="90" y1="602.5" x2="90" y2="-1.75859e-05" gradientUnits="userSpaceOnUse">
<stop stop-color="#83B0BE"/>
<stop offset="1" stop-color="#65C9A5"/>
</linearGradient>
<linearGradient id="paint18_linear_203_265" x1="90" y1="602.5" x2="90" y2="-1.75859e-05" gradientUnits="userSpaceOnUse">
<stop stop-color="#83B0BE"/>
<stop offset="1" stop-color="#65C9A5"/>
</linearGradient>
<linearGradient id="paint19_linear_203_265" x1="90" y1="602.5" x2="90" y2="-1.75859e-05" gradientUnits="userSpaceOnUse">
<stop stop-color="#83B0BE"/>
<stop offset="1" stop-color="#65C9A5"/>
</linearGradient>
<linearGradient id="paint20_linear_203_265" x1="90" y1="602.5" x2="90" y2="-1.75859e-05" gradientUnits="userSpaceOnUse">
<stop stop-color="#83B0BE"/>
<stop offset="1" stop-color="#65C9A5"/>
</linearGradient>
<linearGradient id="paint21_linear_203_265" x1="90" y1="602.5" x2="90" y2="-1.75859e-05" gradientUnits="userSpaceOnUse">
<stop stop-color="#83B0BE"/>
<stop offset="1" stop-color="#65C9A5"/>
</linearGradient>
<linearGradient id="paint22_linear_203_265" x1="90" y1="602.5" x2="90" y2="-1.75859e-05" gradientUnits="userSpaceOnUse">
<stop stop-color="#83B0BE"/>
<stop offset="1" stop-color="#65C9A5"/>
</linearGradient>
<linearGradient id="paint23_linear_203_265" x1="90" y1="602.5" x2="90" y2="-1.75859e-05" gradientUnits="userSpaceOnUse">
<stop stop-color="#83B0BE"/>
<stop offset="1" stop-color="#65C9A5"/>
</linearGradient>
<linearGradient id="paint24_linear_203_265" x1="90" y1="602.5" x2="90" y2="-1.75859e-05" gradientUnits="userSpaceOnUse">
<stop stop-color="#83B0BE"/>
<stop offset="1" stop-color="#65C9A5"/>
</linearGradient>
<linearGradient id="paint25_linear_203_265" x1="90" y1="602.5" x2="90" y2="-1.75859e-05" gradientUnits="userSpaceOnUse">
<stop stop-color="#83B0BE"/>
<stop offset="1" stop-color="#65C9A5"/>
</linearGradient>
<linearGradient id="paint26_linear_203_265" x1="90" y1="602.5" x2="90" y2="-1.75859e-05" gradientUnits="userSpaceOnUse">
<stop stop-color="#83B0BE"/>
<stop offset="1" stop-color="#65C9A5"/>
</linearGradient>
<linearGradient id="paint27_linear_203_265" x1="90" y1="602.5" x2="90" y2="-1.75859e-05" gradientUnits="userSpaceOnUse">
<stop stop-color="#83B0BE"/>
<stop offset="1" stop-color="#65C9A5"/>
</linearGradient>
<linearGradient id="paint28_linear_203_265" x1="90" y1="602.5" x2="90" y2="-1.75859e-05" gradientUnits="userSpaceOnUse">
<stop stop-color="#83B0BE"/>
<stop offset="1" stop-color="#65C9A5"/>
</linearGradient>
<linearGradient id="paint29_linear_203_265" x1="90" y1="602.5" x2="90" y2="-1.75859e-05" gradientUnits="userSpaceOnUse">
<stop stop-color="#83B0BE"/>
<stop offset="1" stop-color="#65C9A5"/>
</linearGradient>
<linearGradient id="paint30_linear_203_265" x1="90" y1="602.5" x2="90" y2="-1.75859e-05" gradientUnits="userSpaceOnUse">
<stop stop-color="#83B0BE"/>
<stop offset="1" stop-color="#65C9A5"/>
</linearGradient>
<linearGradient id="paint31_linear_203_265" x1="90" y1="602.5" x2="90" y2="-1.75859e-05" gradientUnits="userSpaceOnUse">
<stop stop-color="#83B0BE"/>
<stop offset="1" stop-color="#65C9A5"/>
</linearGradient>
<linearGradient id="paint32_linear_203_265" x1="90" y1="602.5" x2="90" y2="-1.75859e-05" gradientUnits="userSpaceOnUse">
<stop stop-color="#83B0BE"/>
<stop offset="1" stop-color="#65C9A5"/>
</linearGradient>
<linearGradient id="paint33_linear_203_265" x1="90" y1="602.5" x2="90" y2="-1.75859e-05" gradientUnits="userSpaceOnUse">
<stop stop-color="#83B0BE"/>
<stop offset="1" stop-color="#65C9A5"/>
</linearGradient>
<linearGradient id="paint34_linear_203_265" x1="90" y1="602.5" x2="90" y2="-1.75859e-05" gradientUnits="userSpaceOnUse">
<stop stop-color="#83B0BE"/>
<stop offset="1" stop-color="#65C9A5"/>
</linearGradient>
<linearGradient id="paint35_linear_203_265" x1="90" y1="602.5" x2="90" y2="-1.75859e-05" gradientUnits="userSpaceOnUse">
<stop stop-color="#83B0BE"/>
<stop offset="1" stop-color="#65C9A5"/>
</linearGradient>
<linearGradient id="paint36_linear_203_265" x1="90" y1="602.5" x2="90" y2="-1.75859e-05" gradientUnits="userSpaceOnUse">
<stop stop-color="#83B0BE"/>
<stop offset="1" stop-color="#65C9A5"/>
</linearGradient>
<linearGradient id="paint37_linear_203_265" x1="90" y1="602.5" x2="90" y2="-1.75859e-05" gradientUnits="userSpaceOnUse">
<stop stop-color="#83B0BE"/>
<stop offset="1" stop-color="#65C9A5"/>
</linearGradient>
<linearGradient id="paint38_linear_203_265" x1="90" y1="602.5" x2="90" y2="-1.75859e-05" gradientUnits="userSpaceOnUse">
<stop stop-color="#83B0BE"/>
<stop offset="1" stop-color="#65C9A5"/>
</linearGradient>
<linearGradient id="paint39_linear_203_265" x1="90" y1="602.5" x2="90" y2="-1.75859e-05" gradientUnits="userSpaceOnUse">
<stop stop-color="#83B0BE"/>
<stop offset="1" stop-color="#65C9A5"/>
</linearGradient>
<linearGradient id="paint40_linear_203_265" x1="90" y1="602.5" x2="90" y2="-1.75859e-05" gradientUnits="userSpaceOnUse">
<stop stop-color="#83B0BE"/>
<stop offset="1" stop-color="#65C9A5"/>
</linearGradient>
<linearGradient id="paint41_linear_203_265" x1="90" y1="602.5" x2="90" y2="-1.75859e-05" gradientUnits="userSpaceOnUse">
<stop stop-color="#83B0BE"/>
<stop offset="1" stop-color="#65C9A5"/>
</linearGradient>
<linearGradient id="paint42_linear_203_265" x1="90" y1="602.5" x2="90" y2="-1.75859e-05" gradientUnits="userSpaceOnUse">
<stop stop-color="#83B0BE"/>
<stop offset="1" stop-color="#65C9A5"/>
</linearGradient>
<linearGradient id="paint43_linear_203_265" x1="90" y1="602.5" x2="90" y2="-1.75859e-05" gradientUnits="userSpaceOnUse">
<stop stop-color="#83B0BE"/>
<stop offset="1" stop-color="#65C9A5"/>
</linearGradient>
<linearGradient id="paint44_linear_203_265" x1="90" y1="602.5" x2="90" y2="-1.75859e-05" gradientUnits="userSpaceOnUse">
<stop stop-color="#83B0BE"/>
<stop offset="1" stop-color="#65C9A5"/>
</linearGradient>
<linearGradient id="paint45_linear_203_265" x1="90" y1="602.5" x2="90" y2="-1.75859e-05" gradientUnits="userSpaceOnUse">
<stop stop-color="#83B0BE"/>
<stop offset="1" stop-color="#65C9A5"/>
</linearGradient>
<linearGradient id="paint46_linear_203_265" x1="90" y1="602.5" x2="90" y2="-1.75859e-05" gradientUnits="userSpaceOnUse">
<stop stop-color="#83B0BE"/>
<stop offset="1" stop-color="#65C9A5"/>
</linearGradient>
<linearGradient id="paint47_linear_203_265" x1="90" y1="602.5" x2="90" y2="-1.75859e-05" gradientUnits="userSpaceOnUse">
<stop stop-color="#83B0BE"/>
<stop offset="1" stop-color="#65C9A5"/>
</linearGradient>
<linearGradient id="paint48_linear_203_265" x1="90" y1="602.5" x2="90" y2="-1.75859e-05" gradientUnits="userSpaceOnUse">
<stop stop-color="#83B0BE"/>
<stop offset="1" stop-color="#65C9A5"/>
</linearGradient>
<linearGradient id="paint49_linear_203_265" x1="90" y1="602.5" x2="90" y2="-1.75859e-05" gradientUnits="userSpaceOnUse">
<stop stop-color="#83B0BE"/>
<stop offset="1" stop-color="#65C9A5"/>
</linearGradient>
<linearGradient id="paint50_linear_203_265" x1="90" y1="602.5" x2="90" y2="-1.75859e-05" gradientUnits="userSpaceOnUse">
<stop stop-color="#83B0BE"/>
<stop offset="1" stop-color="#65C9A5"/>
</linearGradient>
<linearGradient id="paint51_linear_203_265" x1="90" y1="602.5" x2="90" y2="-1.75859e-05" gradientUnits="userSpaceOnUse">
<stop stop-color="#83B0BE"/>
<stop offset="1" stop-color="#65C9A5"/>
</linearGradient>
<linearGradient id="paint52_linear_203_265" x1="90" y1="602.5" x2="90" y2="-1.75859e-05" gradientUnits="userSpaceOnUse">
<stop stop-color="#83B0BE"/>
<stop offset="1" stop-color="#65C9A5"/>
</linearGradient>
<linearGradient id="paint53_linear_203_265" x1="90" y1="602.5" x2="90" y2="-1.75859e-05" gradientUnits="userSpaceOnUse">
<stop stop-color="#83B0BE"/>
<stop offset="1" stop-color="#65C9A5"/>
</linearGradient>
<linearGradient id="paint54_linear_203_265" x1="90" y1="602.5" x2="90" y2="-1.75859e-05" gradientUnits="userSpaceOnUse">
<stop stop-color="#83B0BE"/>
<stop offset="1" stop-color="#65C9A5"/>
</linearGradient>
<linearGradient id="paint55_linear_203_265" x1="90" y1="602.5" x2="90" y2="-1.75859e-05" gradientUnits="userSpaceOnUse">
<stop stop-color="#83B0BE"/>
<stop offset="1" stop-color="#65C9A5"/>
</linearGradient>
<linearGradient id="paint56_linear_203_265" x1="90" y1="602.5" x2="90" y2="-1.75859e-05" gradientUnits="userSpaceOnUse">
<stop stop-color="#83B0BE"/>
<stop offset="1" stop-color="#65C9A5"/>
</linearGradient>
</defs>
</svg>
