<svg width="56" height="57" viewBox="0 0 56 57" fill="none" xmlns="http://www.w3.org/2000/svg">
<path d="M28.5187 0L53.5804 14.0214V42.0642L28.5187 56.0856L2.59277 42.0642V14.0214L28.5187 0Z" fill="#1C1E1F"/>
<path d="M14.1806 53.1864L0.344963 27.5258L14.1776 2.72581H41.8224L55.655 27.5258L41.8195 53.1864H14.1806Z" stroke="#1C1E1F" stroke-width="0.604938"/>
<path d="M12.7397 30.8962V30.6976H13.5736C13.7589 30.6976 13.9244 30.6712 14.07 30.6182C14.2288 30.5653 14.3546 30.4528 14.4472 30.2807C14.5399 30.1086 14.5862 29.8505 14.5862 29.5064V18.1299C14.5862 17.7725 14.5399 17.5078 14.4472 17.3357C14.3546 17.1636 14.2288 17.0511 14.07 16.9982C13.9244 16.9452 13.7589 16.9188 13.5736 16.9188H12.7397V16.7202H19.5895V16.9188H18.7556C18.5703 16.9188 18.3982 16.9518 18.2394 17.018C18.0806 17.071 17.9548 17.1901 17.8622 17.3754C17.7695 17.5475 17.7232 17.8254 17.7232 18.2093V24.4038L22.2698 19.4998C22.5345 19.2086 22.7529 18.9505 22.925 18.7255C23.1103 18.4872 23.2493 18.2755 23.3419 18.0902C23.4346 17.9049 23.4809 17.746 23.4809 17.6137C23.4809 17.4284 23.4214 17.2894 23.3022 17.1967C23.1831 17.0908 22.9779 17.018 22.6867 16.9783C22.3956 16.9386 21.9985 16.9188 21.4955 16.9188V16.7202H26.3995V16.9188C26.0421 16.9188 25.7245 16.9518 25.4465 17.018C25.1818 17.0842 24.884 17.243 24.5531 17.4945C24.2354 17.7328 23.8251 18.1233 23.3221 18.6659L20.3836 21.8426L24.4141 28.2357C24.7317 28.7387 25.0031 29.149 25.2281 29.4667C25.4531 29.7843 25.645 30.0358 25.8039 30.2211C25.9759 30.3932 26.1348 30.5189 26.2804 30.5984C26.426 30.6645 26.5716 30.6976 26.7172 30.6976H26.7569V30.8962H25.6847C24.9303 30.8962 24.3082 30.8631 23.8184 30.7969C23.3287 30.7175 22.925 30.605 22.6073 30.4594C22.3029 30.3138 22.0448 30.1285 21.833 29.9035C21.6345 29.6652 21.4425 29.3873 21.2572 29.0696L18.3188 24.0663L17.7232 24.7016V29.4071C17.7232 29.7777 17.7695 30.0557 17.8622 30.241C17.9548 30.4263 18.0806 30.552 18.2394 30.6182C18.3982 30.6712 18.5703 30.6976 18.7556 30.6976H19.5895V30.8962H12.7397Z" fill="#65C9A5"/>
<path d="M32.0075 38.9562V38.7577H32.8413C33.0399 38.7577 33.2119 38.7312 33.3575 38.6783C33.5164 38.6121 33.6355 38.4864 33.7149 38.301C33.8076 38.1157 33.8539 37.8378 33.8539 37.4672V24.9788H32.5832C31.8685 24.9788 31.2861 25.0715 30.8361 25.2568C30.386 25.4421 30.0485 25.7399 29.8235 26.1502C29.5985 26.5473 29.4595 27.0834 29.4065 27.7584L29.347 28.632H29.1484L29.2874 24.7803H41.5772L41.7162 28.632H41.5177L41.4581 27.7584C41.4184 27.0834 41.2794 26.5473 41.0412 26.1502C40.8161 25.7399 40.4786 25.4421 40.0286 25.2568C39.5786 25.0715 38.9962 24.9788 38.2814 24.9788H37.0107V37.4672C37.0107 37.8378 37.0504 38.1157 37.1299 38.301C37.2225 38.4864 37.3483 38.6121 37.5071 38.6783C37.6659 38.7312 37.838 38.7577 38.0233 38.7577H38.8572V38.9562H32.0075Z" fill="#65C9A5"/>
</svg>
