<svg width="56" height="56" viewBox="0 0 56 56" fill="none" xmlns="http://www.w3.org/2000/svg">
<path d="M14.1804 53.1049L0.345085 27.4839L14.1775 2.72221H41.8225L55.6549 27.4839L41.8196 53.1049H14.1804Z" stroke="#65C9A5" stroke-width="0.604938"/>
<path d="M28.5187 0L53.5804 14V42L28.5187 56L2.59277 42V14L28.5187 0Z" fill="url(#paint0_linear_143_9089)"/>
<path d="M12.7397 30.8723V30.6737H13.5736C13.7589 30.6737 13.9244 30.6472 14.07 30.5943C14.2288 30.5413 14.3546 30.4288 14.4472 30.2568C14.5399 30.0847 14.5862 29.8266 14.5862 29.4825V18.1059C14.5862 17.7486 14.5399 17.4838 14.4472 17.3118C14.3546 17.1397 14.2288 17.0272 14.07 16.9742C13.9244 16.9213 13.7589 16.8948 13.5736 16.8948H12.7397V16.6963H19.5895V16.8948H18.7556C18.5703 16.8948 18.3982 16.9279 18.2394 16.9941C18.0806 17.047 17.9548 17.1662 17.8622 17.3515C17.7695 17.5236 17.7232 17.8015 17.7232 18.1854V24.3799L22.2698 19.4759C22.5345 19.1847 22.7529 18.9266 22.925 18.7016C23.1103 18.4633 23.2493 18.2515 23.3419 18.0662C23.4346 17.8809 23.4809 17.7221 23.4809 17.5897C23.4809 17.4044 23.4214 17.2654 23.3022 17.1728C23.1831 17.0669 22.9779 16.9941 22.6867 16.9544C22.3956 16.9147 21.9985 16.8948 21.4955 16.8948V16.6963H26.3995V16.8948C26.0421 16.8948 25.7245 16.9279 25.4465 16.9941C25.1818 17.0603 24.884 17.2191 24.5531 17.4706C24.2354 17.7089 23.8251 18.0993 23.3221 18.642L20.3836 21.8187L24.4141 28.2118C24.7317 28.7148 25.0031 29.1251 25.2281 29.4427C25.4531 29.7604 25.645 30.0119 25.8039 30.1972C25.9759 30.3693 26.1348 30.495 26.2804 30.5744C26.426 30.6406 26.5716 30.6737 26.7172 30.6737H26.7569V30.8723H25.6847C24.9303 30.8723 24.3082 30.8392 23.8184 30.773C23.3287 30.6936 22.925 30.5811 22.6073 30.4355C22.3029 30.2899 22.0448 30.1046 21.833 29.8795C21.6345 29.6413 21.4425 29.3633 21.2572 29.0457L18.3188 24.0424L17.7232 24.6777V29.3832C17.7232 29.7538 17.7695 30.0318 17.8622 30.2171C17.9548 30.4024 18.0806 30.5281 18.2394 30.5943C18.3982 30.6472 18.5703 30.6737 18.7556 30.6737H19.5895V30.8723H12.7397Z" fill="#1C1E1F"/>
<path d="M32.0075 38.9202V38.7216H32.8413C33.0399 38.7216 33.2119 38.6952 33.3575 38.6422C33.5164 38.576 33.6355 38.4503 33.7149 38.265C33.8076 38.0797 33.8539 37.8017 33.8539 37.4311V24.9427H32.5832C31.8685 24.9427 31.2861 25.0354 30.8361 25.2207C30.386 25.406 30.0485 25.7038 29.8235 26.1141C29.5985 26.5112 29.4595 27.0473 29.4065 27.7223L29.347 28.5959H29.1484L29.2874 24.7442H41.5772L41.7162 28.5959H41.5177L41.4581 27.7223C41.4184 27.0473 41.2794 26.5112 41.0412 26.1141C40.8161 25.7038 40.4786 25.406 40.0286 25.2207C39.5786 25.0354 38.9962 24.9427 38.2814 24.9427H37.0107V37.4311C37.0107 37.8017 37.0504 38.0797 37.1299 38.265C37.2225 38.4503 37.3483 38.576 37.5071 38.6422C37.6659 38.6952 37.838 38.7216 38.0233 38.7216H38.8572V38.9202H32.0075Z" fill="#1C1E1F"/>
<defs>
<linearGradient id="paint0_linear_143_9089" x1="2.59277" y1="28" x2="53.5804" y2="28" gradientUnits="userSpaceOnUse">
<stop stop-color="#83B0BE"/>
<stop offset="1" stop-color="#65C9A5"/>
</linearGradient>
</defs>
</svg>
