<svg width="898" height="427" viewBox="0 0 898 427" fill="none" xmlns="http://www.w3.org/2000/svg">
<path d="M0 22.9489L11.5 21.2486C65.7779 13.696 117.878 48.1312 170 28.9496C193.2 20.4485 211.5 -3.55455 234.5 0.445971C257.5 4.44649 285.5 24.4491 308.5 28.9496C331.5 33.4502 361.8 17.6482 385 14.9478C408.1 12.3475 444.5 27.4494 466.5 31.45C530.259 42.4441 580.942 6.56009 644 10.9473C667 12.6475 686.8 31.2499 710 35.4505C745.761 41.7984 796.332 29.8413 831 21.2486C854 15.6479 877 10.2472 888.5 7.64687L900 4.94652V417H888.5C877 417 854 417 831 417C808 417 785 417 761.8 417C738.7 417 715.3 417 692.2 417C669 417 646 417 623 417C600 417 577 417 554 417C531 417 508 417 484.8 417C461.7 417 438.3 417 415.2 417C392 417 369 417 346 417C323 417 300 417 277 417C254 417 231 417 207.8 417C184.7 417 161.3 417 138.2 417C115 417 92 417 69 417C46 417 23 417 11.5 417H0V22.9489Z" fill="#65C9A5"/>
<path d="M0 82.4263L11.4744 83.2253C22.9489 84.1242 45.8978 85.7223 68.8467 87.6199C91.7956 89.4177 114.744 91.4152 137.893 87.6199C160.942 83.7247 184.29 74.1365 207.338 68.4436C230.487 62.7506 253.436 61.1526 276.384 61.1526C299.333 61.1526 322.282 62.7506 345.231 61.9516C368.18 61.1526 391.129 57.7567 414.277 55.2598C437.326 52.7629 460.674 51.1649 483.723 56.9577C506.871 62.7506 529.82 76.1341 552.769 80.7284C575.718 85.4226 598.667 81.4275 621.616 77.7321C644.564 74.1365 667.513 70.7407 690.662 68.1439C713.71 65.4473 737.058 63.4497 760.107 61.2524C783.256 59.155 806.204 56.758 829.153 55.959C852.102 55.1599 875.051 55.7592 886.526 56.1587L898 56.4583V428H886.526C875.051 428 852.102 428 829.153 428C806.204 428 783.256 428 760.107 428C737.058 428 713.71 428 690.662 428C667.513 428 644.564 428 621.616 428C598.667 428 575.718 428 552.769 428C529.82 428 506.871 428 483.723 428C460.674 428 437.326 428 414.277 428C391.129 428 368.18 428 345.231 428C322.282 428 299.333 428 276.384 428C253.436 428 230.487 428 207.338 428C184.29 428 160.942 428 137.893 428C114.744 428 91.7956 428 68.8467 428C45.8978 428 22.9489 428 11.4744 428H0V82.4263Z" fill="#62C7AB"/>
<path d="M0 82L11.4744 90.2C22.9489 98.3 45.8978 114.7 68.8467 116.2C91.7956 117.7 114.744 104.3 137.893 98.2C160.942 92 184.29 93 207.338 95.7C230.487 98.3 253.436 102.7 276.384 103C299.333 103.3 322.282 99.7 345.231 96.3C368.18 93 391.129 90 414.277 94.7C437.326 99.3 460.674 111.7 483.723 116C506.871 120.3 529.82 116.7 552.769 109.7C575.718 102.7 598.667 92.3 621.616 94.2C644.564 96 667.513 110 690.662 115.3C713.71 120.7 737.058 117.3 760.107 116.5C783.256 115.7 806.204 117.3 829.153 119.2C852.102 121 875.051 123 886.526 124L898 125V428H886.526C875.051 428 852.102 428 829.153 428C806.204 428 783.256 428 760.107 428C737.058 428 713.71 428 690.662 428C667.513 428 644.564 428 621.616 428C598.667 428 575.718 428 552.769 428C529.82 428 506.871 428 483.723 428C460.674 428 437.326 428 414.277 428C391.129 428 368.18 428 345.231 428C322.282 428 299.333 428 276.384 428C253.436 428 230.487 428 207.338 428C184.29 428 160.942 428 137.893 428C114.744 428 91.7956 428 68.8467 428C45.8978 428 22.9489 428 11.4744 428H0V82Z" fill="#60C6B0"/>
<path d="M0 125L11.4744 131.8C22.9489 138.7 45.8978 152.3 68.8467 151.3C91.7956 150.3 114.744 134.7 137.893 127C160.942 119.3 184.29 119.7 207.338 123C230.487 126.3 253.436 132.7 276.384 130.3C299.333 128 322.282 117 345.231 115.8C368.18 114.7 391.129 123.3 414.277 126.5C437.326 129.7 460.674 127.3 483.723 126.3C506.871 125.3 529.82 125.7 552.769 122.5C575.718 119.3 598.667 112.7 621.616 117.8C644.564 123 667.513 140 690.662 141.5C713.71 143 737.058 129 760.107 124.8C783.256 120.7 806.204 126.3 829.153 126.3C852.102 126.3 875.051 120.7 886.526 117.8L898 115V428H886.526C875.051 428 852.102 428 829.153 428C806.204 428 783.256 428 760.107 428C737.058 428 713.71 428 690.662 428C667.513 428 644.564 428 621.616 428C598.667 428 575.718 428 552.769 428C529.82 428 506.871 428 483.723 428C460.674 428 437.326 428 414.277 428C391.129 428 368.18 428 345.231 428C322.282 428 299.333 428 276.384 428C253.436 428 230.487 428 207.338 428C184.29 428 160.942 428 137.893 428C114.744 428 91.7956 428 68.8467 428C45.8978 428 22.9489 428 11.4744 428H0V125Z" fill="#60C4B5"/>
<path d="M0 165.705L11.4744 162.001C22.9489 158.396 45.8978 150.988 68.8467 153.491C91.7956 155.994 114.744 168.408 137.893 169.509C160.942 170.71 184.29 160.699 207.338 163.402C230.487 166.005 253.436 181.422 276.384 184.926C299.333 188.43 322.282 180.021 345.231 170.01C368.18 159.998 391.129 148.385 414.277 143.98C437.326 139.675 460.674 142.679 483.723 150.187C506.871 157.696 529.82 169.709 552.769 174.415C575.718 179.02 598.667 176.417 621.616 173.514C644.564 170.71 667.513 167.707 690.662 172.012C713.71 176.417 737.058 188.03 760.107 187.229C783.256 186.428 806.204 173.013 829.153 166.706C852.102 160.399 875.051 160.999 886.526 161.4L898 161.7V428H886.526C875.051 428 852.102 428 829.153 428C806.204 428 783.256 428 760.107 428C737.058 428 713.71 428 690.662 428C667.513 428 644.564 428 621.616 428C598.667 428 575.718 428 552.769 428C529.82 428 506.871 428 483.723 428C460.674 428 437.326 428 414.277 428C391.129 428 368.18 428 345.231 428C322.282 428 299.333 428 276.384 428C253.436 428 230.487 428 207.338 428C184.29 428 160.942 428 137.893 428C114.744 428 91.7956 428 68.8467 428C45.8978 428 22.9489 428 11.4744 428H0V165.705Z" fill="#61C1B9"/>
<path d="M0 223.846L11.4744 216.04C22.9489 208.134 45.8978 192.522 68.8467 184.616C91.7956 176.81 114.744 176.81 137.893 180.013C160.942 183.115 184.29 189.52 207.338 188.619C230.487 187.818 253.436 179.812 276.384 181.514C299.333 183.115 322.282 194.523 345.231 201.329C368.18 208.134 391.129 210.536 414.277 208.634C437.326 206.833 460.674 200.828 483.723 195.124C506.871 189.52 529.82 184.116 552.769 186.818C575.718 189.52 598.667 200.128 621.616 200.328C644.564 200.528 667.513 190.12 690.662 186.818C713.71 183.515 737.058 187.118 760.107 192.622C783.256 198.126 806.204 205.532 829.153 205.031C852.102 204.531 875.051 196.125 886.526 192.022L898 187.818V428H886.526C875.051 428 852.102 428 829.153 428C806.204 428 783.256 428 760.107 428C737.058 428 713.71 428 690.662 428C667.513 428 644.564 428 621.616 428C598.667 428 575.718 428 552.769 428C529.82 428 506.871 428 483.723 428C460.674 428 437.326 428 414.277 428C391.129 428 368.18 428 345.231 428C322.282 428 299.333 428 276.384 428C253.436 428 230.487 428 207.338 428C184.29 428 160.942 428 137.893 428C114.744 428 91.7956 428 68.8467 428C45.8978 428 22.9489 428 11.4744 428H0V223.846Z" fill="#64BFBC"/>
<path d="M0 214L11.4744 221.2C22.9489 228.3 45.8978 242.7 68.8467 248.3C91.7956 254 114.744 251 137.893 243C160.942 235 184.29 222 207.338 223.3C230.487 224.7 253.436 240.3 276.384 247.8C299.333 255.3 322.282 254.7 345.231 247.7C368.18 240.7 391.129 227.3 414.277 225.8C437.326 224.3 460.674 234.7 483.723 243C506.871 251.3 529.82 257.7 552.769 254.7C575.718 251.7 598.667 239.3 621.616 233.2C644.564 227 667.513 227 690.662 223.5C713.71 220 737.058 213 760.107 218.2C783.256 223.3 806.204 240.7 829.153 239.7C852.102 238.7 875.051 219.3 886.526 209.7L898 200V428H886.526C875.051 428 852.102 428 829.153 428C806.204 428 783.256 428 760.107 428C737.058 428 713.71 428 690.662 428C667.513 428 644.564 428 621.616 428C598.667 428 575.718 428 552.769 428C529.82 428 506.871 428 483.723 428C460.674 428 437.326 428 414.277 428C391.129 428 368.18 428 345.231 428C322.282 428 299.333 428 276.384 428C253.436 428 230.487 428 207.338 428C184.29 428 160.942 428 137.893 428C114.744 428 91.7956 428 68.8467 428C45.8978 428 22.9489 428 11.4744 428H0V214Z" fill="#68BDBE"/>
<path d="M0 245L11.4744 253C22.9489 261 45.8978 277 68.8467 282.7C91.7956 288.3 114.744 283.7 137.893 277.2C160.942 270.7 184.29 262.3 207.338 258.2C230.487 254 253.436 254 276.384 257.8C299.333 261.7 322.282 269.3 345.231 272C368.18 274.7 391.129 272.3 414.277 271.8C437.326 271.3 460.674 272.7 483.723 271.5C506.871 270.3 529.82 266.7 552.769 270.3C575.718 274 598.667 285 621.616 283.7C644.564 282.3 667.513 268.7 690.662 261.5C713.71 254.3 737.058 253.7 760.107 251.5C783.256 249.3 806.204 245.7 829.153 242.2C852.102 238.7 875.051 235.3 886.526 233.7L898 232V428H886.526C875.051 428 852.102 428 829.153 428C806.204 428 783.256 428 760.107 428C737.058 428 713.71 428 690.662 428C667.513 428 644.564 428 621.616 428C598.667 428 575.718 428 552.769 428C529.82 428 506.871 428 483.723 428C460.674 428 437.326 428 414.277 428C391.129 428 368.18 428 345.231 428C322.282 428 299.333 428 276.384 428C253.436 428 230.487 428 207.338 428C184.29 428 160.942 428 137.893 428C114.744 428 91.7956 428 68.8467 428C45.8978 428 22.9489 428 11.4744 428H0V245Z" fill="#6DBAC0"/>
<path d="M0 268L11.4744 274.5C22.9489 281 45.8978 294 68.8467 297.8C91.7956 301.7 114.744 296.3 137.893 295C160.942 293.7 184.29 296.3 207.338 299.2C230.487 302 253.436 305 276.384 305.8C299.333 306.7 322.282 305.3 345.231 298.5C368.18 291.7 391.129 279.3 414.277 278.2C437.326 277 460.674 287 483.723 293.2C506.871 299.3 529.82 301.7 552.769 299.7C575.718 297.7 598.667 291.3 621.616 288.8C644.564 286.3 667.513 287.7 690.662 291.5C713.71 295.3 737.058 301.7 760.107 304.3C783.256 307 806.204 306 829.153 302.3C852.102 298.7 875.051 292.3 886.526 289.2L898 286V428H886.526C875.051 428 852.102 428 829.153 428C806.204 428 783.256 428 760.107 428C737.058 428 713.71 428 690.662 428C667.513 428 644.564 428 621.616 428C598.667 428 575.718 428 552.769 428C529.82 428 506.871 428 483.723 428C460.674 428 437.326 428 414.277 428C391.129 428 368.18 428 345.231 428C322.282 428 299.333 428 276.384 428C253.436 428 230.487 428 207.338 428C184.29 428 160.942 428 137.893 428C114.744 428 91.7956 428 68.8467 428C45.8978 428 22.9489 428 11.4744 428H0V268Z" fill="#72B8C0"/>
<path d="M0 302L11.4744 311.8C22.9489 321.7 45.8978 341.3 68.8467 350C91.7956 358.7 114.744 356.3 137.893 346.2C160.942 336 184.29 318 207.338 318.5C230.487 319 253.436 338 276.384 341.2C299.333 344.3 322.282 331.7 345.231 322.3C368.18 313 391.129 307 414.277 307.3C437.326 307.7 460.674 314.3 483.723 321.7C506.871 329 529.82 337 552.769 339C575.718 341 598.667 337 621.616 337.3C644.564 337.7 667.513 342.3 690.662 336.7C713.71 331 737.058 315 760.107 315.8C783.256 316.7 806.204 334.3 829.153 342.5C852.102 350.7 875.051 349.3 886.526 348.7L898 348V428H886.526C875.051 428 852.102 428 829.153 428C806.204 428 783.256 428 760.107 428C737.058 428 713.71 428 690.662 428C667.513 428 644.564 428 621.616 428C598.667 428 575.718 428 552.769 428C529.82 428 506.871 428 483.723 428C460.674 428 437.326 428 414.277 428C391.129 428 368.18 428 345.231 428C322.282 428 299.333 428 276.384 428C253.436 428 230.487 428 207.338 428C184.29 428 160.942 428 137.893 428C114.744 428 91.7956 428 68.8467 428C45.8978 428 22.9489 428 11.4744 428H0V302Z" fill="#78B5C0"/>
<path d="M0 386.866L11.4744 380.345C22.9489 373.824 45.8978 360.781 68.8467 360.28C91.7956 359.778 114.744 371.817 137.893 371.817C160.942 371.817 184.29 359.778 207.338 358.775C230.487 357.772 253.436 367.804 276.384 370.814C299.333 373.824 322.282 369.811 345.231 365.296C368.18 360.781 391.129 355.765 414.277 357.27C437.326 358.775 460.674 366.801 483.723 370.814C506.871 374.827 529.82 374.827 552.769 370.513C575.718 366.099 598.667 357.471 621.616 356.467C644.564 355.464 667.513 362.086 690.662 360.581C713.71 359.076 737.058 349.444 760.107 344.528C783.256 339.713 806.204 339.713 829.153 345.231C852.102 350.749 875.051 361.785 886.526 367.303L898 372.82V428H886.526C875.051 428 852.102 428 829.153 428C806.204 428 783.256 428 760.107 428C737.058 428 713.71 428 690.662 428C667.513 428 644.564 428 621.616 428C598.667 428 575.718 428 552.769 428C529.82 428 506.871 428 483.723 428C460.674 428 437.326 428 414.277 428C391.129 428 368.18 428 345.231 428C322.282 428 299.333 428 276.384 428C253.436 428 230.487 428 207.338 428C184.29 428 160.942 428 137.893 428C114.744 428 91.7956 428 68.8467 428C45.8978 428 22.9489 428 11.4744 428H0V386.866Z" fill="#7DB3C0"/>
<path d="M0 391.919L11.4744 393.222C22.9489 394.625 45.8978 397.231 68.8467 397.933C91.7956 398.634 114.744 397.231 137.893 398.734C160.942 400.238 184.29 404.648 207.338 400.438C230.487 396.229 253.436 383.601 276.384 384.903C299.333 386.206 322.282 401.641 345.231 407.254C368.18 412.966 391.129 408.957 414.277 405.249C437.326 401.641 460.674 398.233 483.723 395.126C506.871 391.919 529.82 388.912 552.769 383.701C575.718 378.589 598.667 371.173 621.616 368.366C644.564 365.56 667.513 367.164 690.662 372.375C713.71 377.587 737.058 386.206 760.107 392.22C783.256 398.233 806.204 401.641 829.153 400.939C852.102 400.238 875.051 395.627 886.526 393.222L898 390.917V428H886.526C875.051 428 852.102 428 829.153 428C806.204 428 783.256 428 760.107 428C737.058 428 713.71 428 690.662 428C667.513 428 644.564 428 621.616 428C598.667 428 575.718 428 552.769 428C529.82 428 506.871 428 483.723 428C460.674 428 437.326 428 414.277 428C391.129 428 368.18 428 345.231 428C322.282 428 299.333 428 276.384 428C253.436 428 230.487 428 207.338 428C184.29 428 160.942 428 137.893 428C114.744 428 91.7956 428 68.8467 428C45.8978 428 22.9489 428 11.4744 428H0V391.919Z" fill="#83B0BE"/>
</svg>
